<svg width="106" height="106" viewBox="0 0 106 106" fill="none" xmlns="http://www.w3.org/2000/svg">
<path d="M99.8502 1.00488L59.2266 33.5018L66.7807 14.3503L99.8502 1.00488Z" fill="#E17726" stroke="#E17726" stroke-width="0.49375" stroke-linecap="round" stroke-linejoin="round"/>
<path d="M6.15234 1.00488L46.4144 33.8051L39.2218 14.3503L6.15234 1.00488Z" fill="#E27625" stroke="#E27625" stroke-width="0.49375" stroke-linecap="round" stroke-linejoin="round"/>
<path d="M85.2385 76.3544L74.4297 94.206L97.5743 101.095L104.204 76.7443L85.2385 76.3544Z" fill="#E27625" stroke="#E27625" stroke-width="0.49375" stroke-linecap="round" stroke-linejoin="round"/>
<path d="M1.85156 76.7443L8.44135 101.095L31.5458 94.206L20.7771 76.3544L1.85156 76.7443Z" fill="#E27625" stroke="#E27625" stroke-width="0.49375" stroke-linecap="round" stroke-linejoin="round"/>
<path d="M30.3041 46.1971L23.875 56.6828L46.7785 57.8093L46.0151 31.1619L30.3041 46.1971Z" fill="#E27625" stroke="#E27625" stroke-width="0.49375" stroke-linecap="round" stroke-linejoin="round"/>
<path d="M75.7049 46.1972L59.7528 30.8586L59.2305 57.8094L82.134 56.6828L75.7049 46.1972Z" fill="#E27625" stroke="#E27625" stroke-width="0.49375" stroke-linecap="round" stroke-linejoin="round"/>
<path d="M31.5391 94.2061L45.4017 86.9701L33.4678 76.9177L31.5391 94.2061Z" fill="#E27625" stroke="#E27625" stroke-width="0.49375" stroke-linecap="round" stroke-linejoin="round"/>
<path d="M60.6016 86.9701L74.4241 94.2061L72.5355 76.9177L60.6016 86.9701Z" fill="#E27625" stroke="#E27625" stroke-width="0.49375" stroke-linecap="round" stroke-linejoin="round"/>
<path d="M74.4006 94.2064L60.5781 86.9705L61.7032 96.6762L61.5827 100.792L74.4006 94.2064Z" fill="#D5BFB2" stroke="#D5BFB2" stroke-width="0.49375" stroke-linecap="round" stroke-linejoin="round"/>
<path d="M31.5352 94.2064L44.3933 100.792L44.3129 96.6762L45.3978 86.9705L31.5352 94.2064Z" fill="#D5BFB2" stroke="#D5BFB2" stroke-width="0.49375" stroke-linecap="round" stroke-linejoin="round"/>
<path d="M44.6365 70.5051L33.1445 66.8654L41.2612 62.8358L44.6365 70.5051Z" fill="#233447" stroke="#233447" stroke-width="0.49375" stroke-linecap="round" stroke-linejoin="round"/>
<path d="M61.3594 70.5051L64.7346 62.8358L72.8915 66.8654L61.3594 70.5051Z" fill="#233447" stroke="#233447" stroke-width="0.49375" stroke-linecap="round" stroke-linejoin="round"/>
<path d="M31.5382 94.2062L33.5473 76.3546L20.7695 76.7446L31.5382 94.2062Z" fill="#CC6228" stroke="#CC6228" stroke-width="0.49375" stroke-linecap="round" stroke-linejoin="round"/>
<path d="M72.4453 76.3546L74.4142 94.2062L85.2231 76.7446L72.4453 76.3546Z" fill="#CC6228" stroke="#CC6228" stroke-width="0.49375" stroke-linecap="round" stroke-linejoin="round"/>
<path d="M82.1301 56.683L59.2266 57.8095L61.3562 70.505L64.7315 62.8357L72.8883 66.8653L82.1301 56.683Z" fill="#CC6228" stroke="#CC6228" stroke-width="0.49375" stroke-linecap="round" stroke-linejoin="round"/>
<path d="M33.1491 66.8653L41.2658 62.8357L44.6411 70.505L46.7707 57.8095L23.8672 56.683L33.1491 66.8653Z" fill="#CC6228" stroke="#CC6228" stroke-width="0.49375" stroke-linecap="round" stroke-linejoin="round"/>
<path d="M23.8711 56.683L33.4745 76.9177L33.1531 66.8653L23.8711 56.683Z" fill="#E27525" stroke="#E27525" stroke-width="0.49375" stroke-linecap="round" stroke-linejoin="round"/>
<path d="M72.8929 66.8653L72.5312 76.9177L82.1347 56.683L72.8929 66.8653Z" fill="#E27525" stroke="#E27525" stroke-width="0.49375" stroke-linecap="round" stroke-linejoin="round"/>
<path d="M46.7702 57.8101L44.6406 70.5055L47.3328 85.4974L47.9355 65.7393L46.7702 57.8101Z" fill="#E27525" stroke="#E27525" stroke-width="0.49375" stroke-linecap="round" stroke-linejoin="round"/>
<path d="M59.2345 57.8101L58.1094 65.696L58.6719 85.4974L61.3641 70.5055L59.2345 57.8101Z" fill="#E27525" stroke="#E27525" stroke-width="0.49375" stroke-linecap="round" stroke-linejoin="round"/>
<path d="M61.3601 70.5049L58.668 85.4968L60.5967 86.97L72.5306 76.9176L72.8923 66.8652L61.3601 70.5049Z" fill="#F5841F" stroke="#F5841F" stroke-width="0.49375" stroke-linecap="round" stroke-linejoin="round"/>
<path d="M33.1445 66.8652L33.466 76.9176L45.3999 86.97L47.3287 85.4968L44.6365 70.5049L33.1445 66.8652Z" fill="#F5841F" stroke="#F5841F" stroke-width="0.49375" stroke-linecap="round" stroke-linejoin="round"/>
<path d="M61.5949 100.792L61.7155 96.6759L60.6708 95.7227H45.3214L44.3168 96.6759L44.3972 100.792L31.5391 94.2062L36.0394 98.1925L45.1606 104.995H60.7913L69.9527 98.1925L74.4129 94.2062L61.5949 100.792Z" fill="#C0AC9D" stroke="#C0AC9D" stroke-width="0.49375" stroke-linecap="round" stroke-linejoin="round"/>
<path d="M60.59 86.9701L58.6613 85.4969H47.33L45.4013 86.9701L44.3164 96.6759L45.3209 95.7226H60.6703L61.7151 96.6759L60.59 86.9701Z" fill="#161616" stroke="#161616" stroke-width="0.49375" stroke-linecap="round" stroke-linejoin="round"/>
<path d="M101.587 35.6249L105.002 17.6866L99.859 1.00488L60.6016 32.4186L75.7099 46.1972L97.0463 52.9133L101.748 46.9772L99.6983 45.374L102.953 42.1676L100.462 40.0878L103.716 37.4014L101.587 35.6249Z" fill="#763E1A" stroke="#763E1A" stroke-width="0.49375" stroke-linecap="round" stroke-linejoin="round"/>
<path d="M1.00391 17.6866L4.45953 35.6249L2.24954 37.4014L5.54443 40.0878L3.05317 42.1676L6.30788 45.374L4.25862 46.9772L8.95987 52.9133L30.2963 46.1972L45.4046 32.4186L6.14716 1.00488L1.00391 17.6866Z" fill="#763E1A" stroke="#763E1A" stroke-width="0.49375" stroke-linecap="round" stroke-linejoin="round"/>
<path d="M97.0421 52.9135L75.7056 46.1975L82.1347 56.6832L72.5312 76.9179L85.2287 76.7446H104.194L97.0421 52.9135Z" fill="#F5841F" stroke="#F5841F" stroke-width="0.49375" stroke-linecap="round" stroke-linejoin="round"/>
<path d="M30.3002 46.1975L8.96372 52.9135L1.85156 76.7446H20.7771L33.4745 76.9179L23.8711 56.6832L30.3002 46.1975Z" fill="#F5841F" stroke="#F5841F" stroke-width="0.49375" stroke-linecap="round" stroke-linejoin="round"/>
<path d="M59.2331 57.8098L60.5993 32.4189L66.7873 14.3506H39.2227L45.4106 32.4189L46.7768 57.8098L47.2992 65.7823L47.3393 85.4971H58.6706L58.7108 65.7823L59.2331 57.8098Z" fill="#F5841F" stroke="#F5841F" stroke-width="0.49375" stroke-linecap="round" stroke-linejoin="round"/>
</svg>
