<svg width="25" height="24" viewBox="0 0 25 24" fill="none" xmlns="http://www.w3.org/2000/svg">
<path d="M12.2003 5.49378L19.7303 18.5038H4.67032L12.2003 5.49378ZM2.94032 17.5038C2.17032 18.8338 3.13032 20.5038 4.67032 20.5038H19.7303C21.2703 20.5038 22.2303 18.8338 21.4603 17.5038L13.9303 4.49378C13.1603 3.16378 11.2403 3.16378 10.4703 4.49378L2.94032 17.5038ZM11.2003 10.5038V12.5038C11.2003 13.0538 11.6503 13.5038 12.2003 13.5038C12.7503 13.5038 13.2003 13.0538 13.2003 12.5038V10.5038C13.2003 9.95378 12.7503 9.50378 12.2003 9.50378C11.6503 9.50378 11.2003 9.95378 11.2003 10.5038ZM11.2003 15.5038H13.2003V17.5038H11.2003V15.5038Z" fill="#FF3B30"/>
</svg>
