<svg width="20" height="20" viewBox="0 0 20 20" fill="none" xmlns="http://www.w3.org/2000/svg">
<path d="M16.6668 5.00002C16.6668 3.19335 13.6143 1.66669 10.0002 1.66669C6.386 1.66669 3.3335 3.19335 3.3335 5.00002V6.66669C3.3335 8.47335 6.386 10 10.0002 10C13.6143 10 16.6668 8.47335 16.6668 6.66669V5.00002ZM10.0002 15.8334C6.386 15.8334 3.3335 14.3067 3.3335 12.5V15C3.3335 16.8067 6.386 18.3334 10.0002 18.3334C13.6143 18.3334 16.6668 16.8067 16.6668 15V12.5C16.6668 14.3067 13.6143 15.8334 10.0002 15.8334Z" fill="#BBBBBB"/>
<path d="M16.6668 8.33331C16.6668 10.14 13.6143 11.6666 10.0002 11.6666C6.386 11.6666 3.3335 10.14 3.3335 8.33331V10.8333C3.3335 12.64 6.386 14.1666 10.0002 14.1666C13.6143 14.1666 16.6668 12.64 16.6668 10.8333V8.33331Z" fill="#BBBBBB"/>
</svg>
