<svg width="24" height="24" viewBox="0 0 24 24" fill="none" xmlns="http://www.w3.org/2000/svg">
<path d="M10.5594 16.1182C11.7929 16.118 12.9908 15.7051 13.9625 14.9453L17.0174 18L18 17.0174L14.9451 13.9627C15.7054 12.991 16.1185 11.7929 16.1188 10.5591C16.1188 7.49396 13.6247 5 10.5594 5C7.49409 5 5 7.49396 5 10.5591C5 13.6243 7.49409 16.1182 10.5594 16.1182ZM10.5594 6.38978C12.8589 6.38978 14.729 8.25973 14.729 10.5591C14.729 12.8585 12.8589 14.7285 10.5594 14.7285C8.2599 14.7285 6.38985 12.8585 6.38985 10.5591C6.38985 8.25973 8.2599 6.38978 10.5594 6.38978Z" fill="#555555"/>
</svg>
