<svg width="38" height="38" viewBox="0 0 38 38" fill="none" xmlns="http://www.w3.org/2000/svg">
<circle cx="19" cy="19" r="17.5" fill="black" stroke="white" stroke-width="3"/>
<path d="M19 22C20.2426 22 21.25 20.9926 21.25 19.75C21.25 18.5074 20.2426 17.5 19 17.5C17.7574 17.5 16.75 18.5074 16.75 19.75C16.75 20.9926 17.7574 22 19 22Z" fill="white"/>
<path d="M16.75 12.25L15.3775 13.75H11.5V25.75H26.5V13.75H22.6225L21.25 12.25H16.75ZM19 23.5C16.93 23.5 15.25 21.82 15.25 19.75C15.25 17.68 16.93 16 19 16C21.07 16 22.75 17.68 22.75 19.75C22.75 21.82 21.07 23.5 19 23.5Z" fill="white"/>
</svg>
