<svg width="62" height="62" viewBox="0 0 62 62" fill="none" xmlns="http://www.w3.org/2000/svg">
<g filter="url(#filter0_d_179_7932)">
<circle cx="31" cy="31" r="26" fill="white"/>
</g>
<path d="M21.6667 32.1667H28.6667C28.9761 32.1667 29.2728 32.0437 29.4916 31.825C29.7104 31.6062 29.8333 31.3094 29.8333 31V21.6667C29.8333 21.3572 29.7104 21.0605 29.4916 20.8417C29.2728 20.6229 28.9761 20.5 28.6667 20.5H21.6667C21.3572 20.5 21.0605 20.6229 20.8417 20.8417C20.6229 21.0605 20.5 21.3572 20.5 21.6667V31C20.5 31.3094 20.6229 31.6062 20.8417 31.825C21.0605 32.0437 21.3572 32.1667 21.6667 32.1667ZM20.5 40.3333C20.5 40.6428 20.6229 40.9395 20.8417 41.1583C21.0605 41.3771 21.3572 41.5 21.6667 41.5H28.6667C28.9761 41.5 29.2728 41.3771 29.4916 41.1583C29.7104 40.9395 29.8333 40.6428 29.8333 40.3333V35.6667C29.8333 35.3572 29.7104 35.0605 29.4916 34.8417C29.2728 34.6229 28.9761 34.5 28.6667 34.5H21.6667C21.3572 34.5 21.0605 34.6229 20.8417 34.8417C20.6229 35.0605 20.5 35.3572 20.5 35.6667V40.3333ZM32.1667 40.3333C32.1667 40.6428 32.2896 40.9395 32.5084 41.1583C32.7272 41.3771 33.0239 41.5 33.3333 41.5H40.3333C40.6428 41.5 40.9395 41.3771 41.1583 41.1583C41.3771 40.9395 41.5 40.6428 41.5 40.3333V32.1667C41.5 31.8572 41.3771 31.5605 41.1583 31.3417C40.9395 31.1229 40.6428 31 40.3333 31H33.3333C33.0239 31 32.7272 31.1229 32.5084 31.3417C32.2896 31.5605 32.1667 31.8572 32.1667 32.1667V40.3333ZM33.3333 28.6667H40.3333C40.6428 28.6667 40.9395 28.5437 41.1583 28.325C41.3771 28.1062 41.5 27.8094 41.5 27.5V21.6667C41.5 21.3572 41.3771 21.0605 41.1583 20.8417C40.9395 20.6229 40.6428 20.5 40.3333 20.5H33.3333C33.0239 20.5 32.7272 20.6229 32.5084 20.8417C32.2896 21.0605 32.1667 21.3572 32.1667 21.6667V27.5C32.1667 27.8094 32.2896 28.1062 32.5084 28.325C32.7272 28.5437 33.0239 28.6667 33.3333 28.6667Z" fill="black"/>
<defs>
<filter id="filter0_d_179_7932" x="0" y="0" width="62" height="62" filterUnits="userSpaceOnUse" color-interpolation-filters="sRGB">
<feFlood flood-opacity="0" result="BackgroundImageFix"/>
<feColorMatrix in="SourceAlpha" type="matrix" values="0 0 0 0 0 0 0 0 0 0 0 0 0 0 0 0 0 0 127 0" result="hardAlpha"/>
<feOffset/>
<feGaussianBlur stdDeviation="2.5"/>
<feComposite in2="hardAlpha" operator="out"/>
<feColorMatrix type="matrix" values="0 0 0 0 0.471012 0 0 0 0 0.471012 0 0 0 0 0.471012 0 0 0 0.15 0"/>
<feBlend mode="normal" in2="BackgroundImageFix" result="effect1_dropShadow_179_7932"/>
<feBlend mode="normal" in="SourceGraphic" in2="effect1_dropShadow_179_7932" result="shape"/>
</filter>
</defs>
</svg>
