<svg width="62" height="62" viewBox="0 0 62 62" fill="none" xmlns="http://www.w3.org/2000/svg">
<g filter="url(#filter0_d_179_7931)">
<circle cx="31" cy="31" r="26" fill="white"/>
</g>
<path d="M27.9416 42.2536C28.9376 42.5262 29.9655 42.6651 30.9982 42.6666L31.1627 42.6655C31.7523 42.6581 32.3304 42.5019 32.8434 42.2112C33.3564 41.9205 33.7876 41.5049 34.0969 41.003C34.7292 39.981 34.7969 38.7245 34.2754 37.643L34.0444 37.1588C33.5159 36.0598 33.9312 35.0635 34.4971 34.4976C35.0629 33.9318 36.0616 33.5165 37.1571 34.045H37.1582L37.6401 34.2771C38.1699 34.5333 38.7559 34.6513 39.3436 34.6201C39.9313 34.5889 40.5015 34.4095 41.0012 34.0986C41.5035 33.7895 41.9194 33.3584 42.2103 32.8454C42.5011 32.3324 42.6575 31.7542 42.6649 31.1645C42.6795 30.0771 42.5408 28.9931 42.2531 27.9445C41.0421 23.4796 37.1746 20.0648 32.6327 19.4453C28.9589 18.9471 25.3516 20.1476 22.7499 22.7505C20.1482 25.3533 18.9419 28.9548 19.4436 32.6333C20.0619 37.1763 23.4779 41.0426 27.9416 42.2536ZM35.0816 24C35.5457 24 35.9908 24.1843 36.319 24.5125C36.6472 24.8407 36.8316 25.2858 36.8316 25.75C36.8316 26.2141 36.6472 26.6592 36.319 26.9874C35.9908 27.3156 35.5457 27.5 35.0816 27.5C34.6174 27.5 34.1723 27.3156 33.8441 26.9874C33.5159 26.6592 33.3316 26.2141 33.3316 25.75C33.3316 25.2858 33.5159 24.8407 33.8441 24.5125C34.1723 24.1843 34.6174 24 35.0816 24ZM29.2482 22.8333C29.7123 22.8333 30.1575 23.0177 30.4857 23.3459C30.8138 23.6741 30.9982 24.1192 30.9982 24.5833C30.9982 25.0474 30.8138 25.4926 30.4857 25.8207C30.1575 26.1489 29.7123 26.3333 29.2482 26.3333C28.7841 26.3333 28.339 26.1489 28.0108 25.8207C27.6826 25.4926 27.4982 25.0474 27.4982 24.5833C27.4982 24.1192 27.6826 23.6741 28.0108 23.3459C28.339 23.0177 28.7841 22.8333 29.2482 22.8333ZM27.4982 35.0903C27.4982 35.5544 27.3138 35.9996 26.9857 36.3277C26.6575 36.6559 26.2123 36.8403 25.7482 36.8403C25.2841 36.8403 24.839 36.6559 24.5108 36.3277C24.1826 35.9996 23.9982 35.5544 23.9982 35.0903C23.9982 34.6262 24.1826 34.1811 24.5108 33.8529C24.839 33.5247 25.2841 33.3403 25.7482 33.3403C26.2123 33.3403 26.6575 33.5247 26.9857 33.8529C27.3138 34.1811 27.4982 34.6262 27.4982 35.0903ZM24.5816 27.507C25.0458 27.5071 25.491 27.6917 25.8192 28.0201C26.1474 28.3485 26.3317 28.7939 26.3316 29.2581C26.3314 29.7224 26.1468 30.1676 25.8184 30.4958C25.49 30.824 25.0447 31.0083 24.5804 31.0081C24.1161 31.008 23.6709 30.8234 23.3427 30.495C23.0145 30.1666 22.8302 29.7213 22.8304 29.257C22.8305 28.7927 23.0151 28.3475 23.3435 28.0193C23.6719 27.6911 24.1173 27.5068 24.5816 27.507Z" fill="black"/>
<defs>
<filter id="filter0_d_179_7931" x="0" y="0" width="62" height="62" filterUnits="userSpaceOnUse" color-interpolation-filters="sRGB">
<feFlood flood-opacity="0" result="BackgroundImageFix"/>
<feColorMatrix in="SourceAlpha" type="matrix" values="0 0 0 0 0 0 0 0 0 0 0 0 0 0 0 0 0 0 127 0" result="hardAlpha"/>
<feOffset/>
<feGaussianBlur stdDeviation="2.5"/>
<feComposite in2="hardAlpha" operator="out"/>
<feColorMatrix type="matrix" values="0 0 0 0 0.471012 0 0 0 0 0.471012 0 0 0 0 0.471012 0 0 0 0.15 0"/>
<feBlend mode="normal" in2="BackgroundImageFix" result="effect1_dropShadow_179_7931"/>
<feBlend mode="normal" in="SourceGraphic" in2="effect1_dropShadow_179_7931" result="shape"/>
</filter>
</defs>
</svg>
