<svg width="24" height="24" viewBox="0 0 24 24" fill="none" xmlns="http://www.w3.org/2000/svg">
<path d="M12 3C7.0374 3 3 7.0374 3 12C3 16.9626 7.0374 21 12 21C16.9626 21 21 16.9626 21 12C21 7.0374 16.9626 3 12 3ZM12 19.2C8.0301 19.2 4.8 15.9699 4.8 12C4.8 8.0301 8.0301 4.8 12 4.8C15.9699 4.8 19.2 8.0301 19.2 12C19.2 15.9699 15.9699 19.2 12 19.2Z" fill="#15A46E"/>
<path d="M10.1993 13.4284L8.13017 11.3629L6.85938 12.6373L10.2011 15.9718L16.2365 9.93636L14.9639 8.66376L10.1993 13.4284Z" fill="#15A46E"/>
</svg>
