<svg width="20" height="20" viewBox="0 0 20 20" fill="none" xmlns="http://www.w3.org/2000/svg">
<path d="M17.0832 4.16669C16.7517 4.16669 16.4338 4.29838 16.1993 4.5328C15.9649 4.76722 15.8332 5.08517 15.8332 5.41669V9.16669H14.9999V3.75002C14.9999 3.4185 14.8682 3.10056 14.6338 2.86614C14.3994 2.63172 14.0814 2.50002 13.7499 2.50002C13.4184 2.50002 13.1004 2.63172 12.866 2.86614C12.6316 3.10056 12.4999 3.4185 12.4999 3.75002V9.16669H11.6666V2.91669C11.6666 2.58517 11.5349 2.26722 11.3004 2.0328C11.066 1.79838 10.7481 1.66669 10.4166 1.66669C10.085 1.66669 9.76709 1.79838 9.53267 2.0328C9.29825 2.26722 9.16656 2.58517 9.16656 2.91669V9.16669H8.33322V4.58335C8.33322 4.25183 8.20153 3.93389 7.96711 3.69947C7.73269 3.46505 7.41475 3.33335 7.08322 3.33335C6.7517 3.33335 6.43376 3.46505 6.19934 3.69947C5.96492 3.93389 5.83322 4.25183 5.83322 4.58335V13.5917L3.98322 10.5917C3.80862 10.3088 3.52879 10.1068 3.20529 10.0303C2.88179 9.95368 2.54112 10.0088 2.25822 10.1834C1.97533 10.358 1.77338 10.6378 1.6968 10.9613C1.62022 11.2848 1.67529 11.6255 1.84989 11.9084L4.60822 16.3584C4.98151 16.9619 5.50277 17.4601 6.12258 17.8058C6.7424 18.1514 7.44022 18.333 8.14989 18.3334H14.1666C15.2716 18.3334 16.3314 17.8944 17.1128 17.113C17.8942 16.3316 18.3332 15.2718 18.3332 14.1667V5.41669C18.3332 5.08517 18.2015 4.76722 17.9671 4.5328C17.7327 4.29838 17.4147 4.16669 17.0832 4.16669Z" fill="#BBBBBB"/>
</svg>
