<svg width="20" height="20" viewBox="0 0 20 20" fill="none" xmlns="http://www.w3.org/2000/svg">
<path d="M9.99984 1.66669C5.39984 1.66669 1.6665 5.40002 1.6665 10C1.6665 14.6 5.39984 18.3334 9.99984 18.3334C14.5998 18.3334 18.3332 14.6 18.3332 10C18.3332 5.40002 14.5998 1.66669 9.99984 1.66669ZM9.99984 4.16669C11.3832 4.16669 12.4998 5.28335 12.4998 6.66669C12.4998 8.05002 11.3832 9.16669 9.99984 9.16669C8.6165 9.16669 7.49984 8.05002 7.49984 6.66669C7.49984 5.28335 8.6165 4.16669 9.99984 4.16669ZM9.99984 16C7.9165 16 6.07484 14.9334 4.99984 13.3167C5.02484 11.6584 8.33317 10.75 9.99984 10.75C11.6582 10.75 14.9748 11.6584 14.9998 13.3167C13.9248 14.9334 12.0832 16 9.99984 16Z" fill="#BBBBBB"/>
</svg>
