<svg width="20" height="20" viewBox="0 0 20 20" fill="none" xmlns="http://www.w3.org/2000/svg">
<path d="M9.99984 1.66669C5.40484 1.66669 1.6665 5.40502 1.6665 10C1.6665 14.595 5.40484 18.3334 9.99984 18.3334C14.5948 18.3334 18.3332 14.595 18.3332 10C18.3332 5.40502 14.5948 1.66669 9.99984 1.66669ZM13.4882 10.6167L9.99984 14.105L6.5115 10.6167C6.29595 10.4039 6.12481 10.1504 6.008 9.87098C5.89118 9.59152 5.83103 9.29166 5.83103 8.98877C5.83103 8.68589 5.89118 8.38602 6.008 8.10656C6.12481 7.82711 6.29595 7.57364 6.5115 7.36085C6.72427 7.14543 6.97769 6.97439 7.25707 6.85765C7.53645 6.74092 7.83622 6.68081 8.139 6.68081C8.44179 6.68081 8.74156 6.74092 9.02094 6.85765C9.30031 6.97439 9.55373 7.14543 9.7665 7.36085L9.99984 7.59335L10.2323 7.36085C10.4451 7.14543 10.6985 6.97439 10.9779 6.85765C11.2573 6.74092 11.5571 6.68081 11.8598 6.68081C12.1626 6.68081 12.4624 6.74092 12.7418 6.85765C13.0211 6.97439 13.2746 7.14543 13.4873 7.36085C13.7029 7.57358 13.8742 7.82701 13.991 8.10644C14.1079 8.38586 14.1681 8.68571 14.1682 8.9886C14.1683 9.29148 14.1082 9.59136 13.9915 9.87085C13.8747 10.1503 13.7037 10.4038 13.4882 10.6167Z" fill="#BBBBBB"/>
</svg>
