<svg width="21" height="20" viewBox="0 0 21 20" fill="none" xmlns="http://www.w3.org/2000/svg">
<path d="M10.1499 14H11.6499V12.5H10.1499V14ZM10.8999 2C6.7599 2 3.3999 5.36 3.3999 9.5C3.3999 13.64 6.7599 17 10.8999 17C15.0399 17 18.3999 13.64 18.3999 9.5C18.3999 5.36 15.0399 2 10.8999 2ZM10.8999 15.5C7.5924 15.5 4.8999 12.8075 4.8999 9.5C4.8999 6.1925 7.5924 3.5 10.8999 3.5C14.2074 3.5 16.8999 6.1925 16.8999 9.5C16.8999 12.8075 14.2074 15.5 10.8999 15.5ZM10.8999 5C9.2424 5 7.8999 6.3425 7.8999 8H9.3999C9.3999 7.175 10.0749 6.5 10.8999 6.5C11.7249 6.5 12.3999 7.175 12.3999 8C12.3999 9.5 10.1499 9.3125 10.1499 11.75H11.6499C11.6499 10.0625 13.8999 9.875 13.8999 8C13.8999 6.3425 12.5574 5 10.8999 5Z" fill="#366DFC"/>
</svg>
